<?xml version="1.0" encoding="UTF-8"?>
<svg width="700pt" height="700pt" version="1.1" viewBox="0 0 700 700" xmlns="http://www.w3.org/2000/svg" xmlns:xlink="http://www.w3.org/1999/xlink">
 <defs>
  <symbol id="m" overflow="visible">
   <path d="m37.516-2.25c-1.9297 1.0117-3.9453 1.7734-6.0469 2.2812-2.0938 0.50781-4.2812 0.76562-6.5625 0.76562-6.793 0-12.18-1.8984-16.156-5.7031-3.9688-3.8008-5.9531-8.957-5.9531-15.469 0-6.5195 1.9844-11.68 5.9531-15.484 3.9766-3.8008 9.3633-5.7031 16.156-5.7031 2.2812 0 4.4688 0.25781 6.5625 0.76562 2.1016 0.51172 4.1172 1.2656 6.0469 2.2656v8.4531c-1.9492-1.332-3.8711-2.3047-5.7656-2.9219-1.8984-0.625-3.8906-0.9375-5.9844-0.9375-3.7617 0-6.7188 1.2031-8.875 3.6094-2.1484 2.4062-3.2188 5.7266-3.2188 9.9531 0 4.2109 1.0703 7.5156 3.2188 9.9219 2.1562 2.4062 5.1133 3.6094 8.875 3.6094 2.0938 0 4.0859-0.30469 5.9844-0.92188 1.8945-0.625 3.8164-1.5977 5.7656-2.9219z"/>
  </symbol>
  <symbol id="c" overflow="visible">
   <path d="m27.453-22.281c-0.85547-0.40625-1.7109-0.70312-2.5625-0.89062-0.84375-0.19531-1.6953-0.29688-2.5469-0.29688-2.5234 0-4.4609 0.80859-5.8125 2.4219-1.3555 1.6172-2.0312 3.9297-2.0312 6.9375v14.109h-9.7969v-30.625h9.7969v5.0312c1.25-2.0078 2.6914-3.4727 4.3281-4.3906 1.6328-0.91406 3.5859-1.375 5.8594-1.375 0.33203 0 0.6875 0.015625 1.0625 0.046875 0.38281 0.023438 0.94141 0.078125 1.6719 0.17188z"/>
  </symbol>
  <symbol id="b" overflow="visible">
   <path d="m35.281-15.391v2.7812h-22.891c0.23828 2.3047 1.0664 4.0273 2.4844 5.1719 1.4258 1.1484 3.4141 1.7188 5.9688 1.7188 2.0508 0 4.1562-0.30078 6.3125-0.90625 2.1641-0.61328 4.3906-1.5391 6.6719-2.7812v7.5469c-2.3125 0.875-4.6328 1.5391-6.9531 1.9844-2.3125 0.44531-4.625 0.67188-6.9375 0.67188-5.543 0-9.8516-1.4062-12.922-4.2188-3.0742-2.8203-4.6094-6.7734-4.6094-11.859 0-5 1.5039-8.9258 4.5156-11.781 3.0195-2.8633 7.1758-4.2969 12.469-4.2969 4.8125 0 8.6602 1.4492 11.547 4.3438 2.8945 2.8984 4.3438 6.7734 4.3438 11.625zm-10.062-3.2656c0-1.8516-0.54688-3.3477-1.6406-4.4844-1.0859-1.1445-2.5-1.7188-4.25-1.7188-1.8984 0-3.4375 0.53906-4.625 1.6094-1.1797 1.0625-1.9141 2.5938-2.2031 4.5938z"/>
  </symbol>
  <symbol id="i" overflow="visible">
   <path d="m18.438-13.781c-2.043 0-3.5781 0.35156-4.6094 1.0469-1.0312 0.6875-1.5469 1.7031-1.5469 3.0469 0 1.2422 0.41016 2.2148 1.2344 2.9219 0.83203 0.69922 1.9883 1.0469 3.4688 1.0469 1.8438 0 3.3906-0.66016 4.6406-1.9844 1.2578-1.3203 1.8906-2.9727 1.8906-4.9531v-1.125zm14.953-3.6875v17.469h-9.875v-4.5469c-1.3125 1.8672-2.793 3.2266-4.4375 4.0781-1.6367 0.84375-3.6328 1.2656-5.9844 1.2656-3.168 0-5.7422-0.92578-7.7188-2.7812-1.9805-1.8516-2.9688-4.2539-2.9688-7.2031 0-3.5938 1.2344-6.2266 3.7031-7.9062 2.4688-1.6758 6.3477-2.5156 11.641-2.5156h5.7656v-0.76562c0-1.5508-0.60938-2.6875-1.8281-3.4062s-3.125-1.0781-5.7188-1.0781c-2.0938 0-4.0469 0.21484-5.8594 0.64062-1.8047 0.41797-3.4766 1.043-5.0156 1.875v-7.4688c2.0938-0.50781 4.1953-0.89453 6.3125-1.1562 2.1133-0.25781 4.2266-0.39062 6.3438-0.39062 5.5195 0 9.5039 1.0898 11.953 3.2656 2.457 2.1797 3.6875 5.7188 3.6875 10.625z"/>
  </symbol>
  <symbol id="a" overflow="visible">
   <path d="m15.391-39.328v8.7031h10.094v7h-10.094v12.984c0 1.4297 0.28125 2.3906 0.84375 2.8906 0.57031 0.5 1.6953 0.75 3.375 0.75h5.0312v7h-8.3906c-3.8672 0-6.6055-0.80469-8.2188-2.4219-1.6172-1.6133-2.4219-4.3516-2.4219-8.2188v-12.984h-4.875v-7h4.875v-8.7031z"/>
  </symbol>
  <symbol id="h" overflow="visible">
   <path d="m25.547-26.141v-16.406h9.8438v42.547h-9.8438v-4.4375c-1.3555 1.8125-2.8438 3.1406-4.4688 3.9844-1.6172 0.83203-3.4922 1.25-5.625 1.25-3.7734 0-6.8711-1.5-9.2969-4.5-2.4297-3-3.6406-6.8594-3.6406-11.578 0-4.7266 1.2109-8.5859 3.6406-11.578 2.4258-3 5.5234-4.5 9.2969-4.5 2.1133 0 3.9844 0.42188 5.6094 1.2656 1.6328 0.84375 3.1289 2.1641 4.4844 3.9531zm-6.4531 19.828c2.0938 0 3.6914-0.76562 4.7969-2.2969 1.1016-1.5312 1.6562-3.7539 1.6562-6.6719 0-2.9141-0.55469-5.1406-1.6562-6.6719-1.1055-1.5312-2.7031-2.2969-4.7969-2.2969-2.0859 0-3.6797 0.76562-4.7812 2.2969-1.1055 1.5312-1.6562 3.7578-1.6562 6.6719 0 2.918 0.55078 5.1406 1.6562 6.6719 1.1016 1.5312 2.6953 2.2969 4.7812 2.2969z"/>
  </symbol>
  <symbol id="g" overflow="visible">
   <path d="m21-6.3125c2.0938 0 3.6914-0.76562 4.7969-2.2969 1.1016-1.5312 1.6562-3.7539 1.6562-6.6719 0-2.9141-0.55469-5.1406-1.6562-6.6719-1.1055-1.5312-2.7031-2.2969-4.7969-2.2969s-3.7031 0.77344-4.8281 2.3125c-1.1172 1.5312-1.6719 3.75-1.6719 6.6562 0 2.8984 0.55469 5.1172 1.6719 6.6562 1.125 1.543 2.7344 2.3125 4.8281 2.3125zm-6.5-19.828c1.3438-1.7891 2.832-3.1094 4.4688-3.9531 1.6445-0.84375 3.5352-1.2656 5.6719-1.2656 3.7695 0 6.8672 1.5 9.2969 4.5 2.4258 2.9922 3.6406 6.8516 3.6406 11.578 0 4.7188-1.2148 8.5781-3.6406 11.578-2.4297 3-5.5273 4.5-9.2969 4.5-2.1367 0-4.0273-0.42188-5.6719-1.2656-1.6367-0.85156-3.125-2.1758-4.4688-3.9688v4.4375h-9.7969v-42.547h9.7969z"/>
  </symbol>
  <symbol id="f" overflow="visible">
   <path d="m0.6875-30.625h9.7812l8.2344 20.781 7-20.781h9.7969l-12.891 33.531c-1.293 3.4062-2.8047 5.7852-4.5312 7.1406-1.7188 1.3633-3.9922 2.0469-6.8125 2.0469h-5.6562v-6.4375h3.0625c1.6562 0 2.8594-0.26562 3.6094-0.79688 0.75781-0.52344 1.3516-1.4648 1.7812-2.8281l0.26562-0.85938z"/>
  </symbol>
  <symbol id="e" overflow="visible">
   <path d="m5.1406-40.828h28.406v7.9531h-17.875v7.6094h16.812v7.9531h-16.812v17.312h-10.531z"/>
  </symbol>
  <symbol id="l" overflow="visible">
   <path d="m4.7031-30.625h9.7969v30.625h-9.7969zm0-11.922h9.7969v7.9844h-9.7969z"/>
  </symbol>
  <symbol id="d" overflow="visible">
   <path d="m4.7031-42.547h9.7969v42.547h-9.7969z"/>
  </symbol>
  <symbol id="k" overflow="visible">
   <path d="m21.844-27.094 11.188 12.297c0.96875-1.2695 1.7031-2.6953 2.2031-4.2812 0.5-1.5938 0.79688-3.3906 0.89062-5.3906h8.5c-0.27344 3.3125-0.91406 6.2656-1.9219 8.8594-1.0117 2.5859-2.4219 4.8516-4.2344 6.7969l8.0156 8.8125h-11.594l-2.6719-2.9844c-1.918 1.2812-3.9336 2.2344-6.0469 2.8594-2.1172 0.61328-4.3594 0.92188-6.7344 0.92188-4.793 0-8.6719-1.2578-11.641-3.7812-2.9609-2.5312-4.4375-5.7891-4.4375-9.7812 0-2.6641 0.64844-5.0234 1.9531-7.0781 1.3125-2.0508 3.4414-4.0391 6.3906-5.9688-0.76172-0.96875-1.3242-1.9297-1.6875-2.8906-0.36719-0.96875-0.54688-1.9844-0.54688-3.0469 0-2.9688 1.1562-5.3438 3.4688-7.125 2.3125-1.7891 5.3906-2.6875 9.2344-2.6875 1.6641 0 3.3945 0.13672 5.1875 0.40625 1.7891 0.26172 3.6641 0.65234 5.625 1.1719v7.6094c-1.7188-0.875-3.3438-1.5195-4.875-1.9375-1.5312-0.42578-3.0273-0.64062-4.4844-0.64062-1.4062 0-2.4961 0.27344-3.2656 0.8125-0.77344 0.54297-1.1562 1.3047-1.1562 2.2812 0 0.625 0.21875 1.3359 0.65625 2.125 0.44531 0.79297 1.1094 1.6719 1.9844 2.6406zm-5.4375 6.7812c-1.1875 0.85547-2.0859 1.8242-2.6875 2.9062-0.59375 1.0859-0.89062 2.2734-0.89062 3.5625 0 2.1055 0.76953 3.8984 2.3125 5.375 1.5508 1.4688 3.4141 2.2031 5.5938 2.2031 1.2188 0 2.3516-0.1875 3.4062-0.5625 1.0625-0.375 2.0469-0.92969 2.9531-1.6719z"/>
  </symbol>
  <symbol id="j" overflow="visible">
   <path d="m33.547-39.547v8.6406c-2.2422-1-4.4297-1.7539-6.5625-2.2656-2.125-0.50781-4.1367-0.76562-6.0312-0.76562-2.5234 0-4.3867 0.35156-5.5938 1.0469-1.1992 0.6875-1.7969 1.7617-1.7969 3.2188 0 1.0938 0.40625 1.9492 1.2188 2.5625 0.8125 0.60547 2.2852 1.125 4.4219 1.5625l4.4844 0.90625c4.5312 0.91797 7.7539 2.3086 9.6719 4.1719 1.9141 1.8555 2.875 4.4961 2.875 7.9219 0 4.5-1.3398 7.8516-4.0156 10.047-2.668 2.1992-6.7461 3.2969-12.234 3.2969-2.5859 0-5.1836-0.25-7.7969-0.75-2.6055-0.48828-5.2109-1.2188-7.8125-2.1875v-8.875c2.6016 1.3867 5.125 2.4297 7.5625 3.125 2.4375 0.69922 4.7852 1.0469 7.0469 1.0469 2.2891 0 4.0469-0.37891 5.2656-1.1406 1.2266-0.76953 1.8438-1.8633 1.8438-3.2812 0-1.2812-0.41797-2.2656-1.25-2.9531-0.83594-0.69531-2.4922-1.3164-4.9688-1.8594l-4.0625-0.90625c-4.0859-0.875-7.0742-2.2656-8.9688-4.1719-1.8867-1.9141-2.8281-4.5-2.8281-7.75 0-4.0625 1.3125-7.1875 3.9375-9.375s6.3984-3.2812 11.328-3.2812c2.2383 0 4.5391 0.17188 6.9062 0.51562 2.375 0.33594 4.8281 0.83594 7.3594 1.5z"/>
  </symbol>
 </defs>
 <g>
  <path d="m385.17 192.53h-2.9102c-4.4805 0-8.0625 3.5859-8.0625 8.0625 0 4.4805 3.5859 8.0625 8.0625 8.0625h2.9102c4.4805 0 8.0625-3.5859 8.0625-8.0625 0.11328-4.4766-3.582-8.0625-8.0625-8.0625z"/>
  <path d="m348.77 192.53h-2.9102c-4.4805 0-8.0625 3.5859-8.0625 8.0625 0 4.4805 3.5859 8.0625 8.0625 8.0625h2.9102c4.4805 0 8.0625-3.5859 8.0625-8.0625 0.11328-4.4766-3.5859-8.0625-8.0625-8.0625z"/>
  <path d="m312.37 192.53h-2.9102c-4.4805 0-8.0625 3.5859-8.0625 8.0625 0 4.4805 3.5859 8.0625 8.0625 8.0625h2.9102c4.4805 0 8.0625-3.5859 8.0625-8.0625 0.003906-4.4766-3.582-8.0625-8.0625-8.0625z"/>
  <path d="m312.37 220.86h-2.9102c-4.4805 0-8.0625 3.5859-8.0625 8.0625 0 4.4805 3.5859 8.0625 8.0625 8.0625h2.9102c4.4805 0 8.0625-3.5859 8.0625-8.0625 0.003906-4.3672-3.582-8.0625-8.0625-8.0625z"/>
  <path d="m348.77 220.86h-2.9102c-4.4805 0-8.0625 3.5859-8.0625 8.0625 0 4.4805 3.5859 8.0625 8.0625 8.0625h2.9102c4.4805 0 8.0625-3.5859 8.0625-8.0625 0.11328-4.3672-3.5859-8.0625-8.0625-8.0625z"/>
  <path d="m385.17 220.86h-2.9102c-4.4805 0-8.0625 3.5859-8.0625 8.0625 0 4.4805 3.5859 8.0625 8.0625 8.0625h2.9102c4.4805 0 8.0625-3.5859 8.0625-8.0625 0.11328-4.3672-3.582-8.0625-8.0625-8.0625z"/>
  <path d="m348.77 249.31h-2.9102c-4.4805 0-8.0625 3.5859-8.0625 8.0625 0 4.4805 3.5859 8.0625 8.0625 8.0625h2.9102c4.4805 0 8.0625-3.5859 8.0625-8.0625 0.11328-4.3672-3.5859-8.0625-8.0625-8.0625z"/>
  <path d="m312.37 249.31h-2.9102c-4.4805 0-8.0625 3.5859-8.0625 8.0625 0 4.4805 3.5859 8.0625 8.0625 8.0625h2.9102c4.4805 0 8.0625-3.5859 8.0625-8.0625 0.003906-4.3672-3.582-8.0625-8.0625-8.0625z"/>
  <path d="m385.17 249.31h-2.9102c-4.4805 0-8.0625 3.5859-8.0625 8.0625 0 4.4805 3.5859 8.0625 8.0625 8.0625h2.9102c4.4805 0 8.0625-3.5859 8.0625-8.0625 0.11328-4.3672-3.582-8.0625-8.0625-8.0625z"/>
  <path d="m348.77 277.76h-2.9102c-4.4805 0-8.0625 3.5859-8.0625 8.0625 0 4.4805 3.5859 8.0625 8.0625 8.0625h2.9102c4.4805 0 8.0625-3.5859 8.0625-8.0625 0.11328-4.4805-3.5859-8.0625-8.0625-8.0625z"/>
  <path d="m385.17 277.76h-2.9102c-4.4805 0-8.0625 3.5859-8.0625 8.0625 0 4.4805 3.5859 8.0625 8.0625 8.0625h2.9102c4.4805 0 8.0625-3.5859 8.0625-8.0625 0.11328-4.4805-3.582-8.0625-8.0625-8.0625z"/>
  <path d="m312.37 277.76h-2.9102c-4.4805 0-8.0625 3.5859-8.0625 8.0625 0 4.4805 3.5859 8.0625 8.0625 8.0625h2.9102c4.4805 0 8.0625-3.5859 8.0625-8.0625 0.003906-4.4805-3.582-8.0625-8.0625-8.0625z"/>
  <path d="m385.17 306.21h-2.9102c-4.4805 0-8.0625 3.5859-8.0625 8.0625 0 4.4805 3.5859 8.0625 8.0625 8.0625h2.9102c4.4805 0 8.0625-3.5859 8.0625-8.0625 0.11328-4.4766-3.582-8.0625-8.0625-8.0625z"/>
  <path d="m348.77 306.21h-2.9102c-4.4805 0-8.0625 3.5859-8.0625 8.0625 0 4.4805 3.5859 8.0625 8.0625 8.0625h2.9102c4.4805 0 8.0625-3.5859 8.0625-8.0625 0.11328-4.4766-3.5859-8.0625-8.0625-8.0625z"/>
  <path d="m312.37 306.21h-2.9102c-4.4805 0-8.0625 3.5859-8.0625 8.0625 0 4.4805 3.5859 8.0625 8.0625 8.0625h2.9102c4.4805 0 8.0625-3.5859 8.0625-8.0625 0.003906-4.4766-3.582-8.0625-8.0625-8.0625z"/>
  <path d="m385.17 334.54h-2.9102c-4.4805 0-8.0625 3.5859-8.0625 8.0625 0 4.4805 3.5859 8.0625 8.0625 8.0625h2.9102c4.4805 0 8.0625-3.5859 8.0625-8.0625 0-4.4766-3.582-8.0625-8.0625-8.0625z"/>
  <path d="m348.77 334.54h-2.9102c-4.4805 0-8.0625 3.5859-8.0625 8.0625 0 4.4805 3.5859 8.0625 8.0625 8.0625h2.9102c4.4805 0 8.0625-3.5859 8.0625-8.0625 0-4.4766-3.5859-8.0625-8.0625-8.0625z"/>
  <path d="m312.37 334.54h-2.9102c-4.4805 0-8.0625 3.5859-8.0625 8.0625 0 4.4805 3.5859 8.0625 8.0625 8.0625h2.9102c4.4805 0 8.0625-3.5859 8.0625-8.0625 0.003906-4.4766-3.582-8.0625-8.0625-8.0625z"/>
  <path d="m518.11 460.54h-184.35c-4.4805 0-8.0625 3.5859-8.0625 8.0625 0 4.4805 3.5859 8.0625 8.0625 8.0625h184.24c4.4805 0 8.0625-3.5859 8.0625-8.0625 0.11328-4.4766-3.4688-8.0625-7.9492-8.0625z"/>
  <path d="m226.69 460.54h-59.918c-4.4805 0-8.0625 3.5859-8.0625 8.0625 0 4.4805 3.5859 8.0625 8.0625 8.0625h59.922c4.4805 0 8.0625-3.5859 8.0625-8.0625 0-4.4766-3.5859-8.0625-8.0664-8.0625z"/>
  <path d="m265.89 460.54h-3.2461c-4.4805 0-8.0625 3.5859-8.0625 8.0625 0 4.4805 3.5859 8.0625 8.0625 8.0625h3.2461c4.4805 0 8.0625-3.5859 8.0625-8.0625 0.003906-4.4766-3.582-8.0625-8.0625-8.0625z"/>
  <path d="m297.47 460.54h-3.2461c-4.4805 0-8.0625 3.5859-8.0625 8.0625 0 4.4805 3.5859 8.0625 8.0625 8.0625h3.2461c4.4805 0 8.0625-3.5859 8.0625-8.0625 0-4.4766-3.582-8.0625-8.0625-8.0625z"/>
  <path d="m563.7 427.84h-77.727v-38.977c6.3828 2.6875 13.551 4.2578 20.496 4.2578 25.312 0 45.922-20.609 45.922-45.922 0-16.238-8.625-31.023-22.062-39.199 3.0234-4.9297 4.7031-10.754 4.7031-16.688 0-17.695-14.449-32.145-32.145-32.258-1.2305-15.23-14-27.328-29.68-27.328-16.352 0-29.793 13.328-29.793 29.793 0 2.2383 0.22266 4.4805 0.78516 6.6094-4.5938 1.3438-8.7344 3.5859-12.32 6.4961l-0.003906-112.9c0-4.4805-3.5859-8.0625-8.0625-8.0625h-27.105v-18.258c0-4.4805-3.5859-8.0625-8.0625-8.0625h-34.273v-41.887c0-4.4805-3.5859-8.0625-8.0625-8.0625-4.4805 0-8.0625 3.5859-8.0625 8.0625v41.777h-34.273c-4.4805 0-8.0625 3.5859-8.0625 8.0625v18.258h-23.855c-4.4805 0-8.0625 3.5859-8.0625 8.0625v87.695h-94.422c-4.4805 0-8.0625 3.5859-8.0625 8.0625v170.46h-29.566c-4.4805 0-8.0625 3.5859-8.0625 8.0625 0 4.4805 3.5859 8.0625 8.0625 8.0625h431.76c4.4805 0 8.0625-3.5859 8.0625-8.0625 0-4.3672-3.5859-8.0625-8.0664-8.0625zm-359.3-20.16h-2.9102c-4.4805 0-8.0625-3.5859-8.0625-8.0625 0-4.4805 3.5859-8.0625 8.0625-8.0625l2.9102-0.003907c4.4805 0 8.0625 3.5859 8.0625 8.0625 0.003906 4.3711-3.582 8.0664-8.0625 8.0664zm0-28.449h-2.9102c-4.4805 0-8.0625-3.5859-8.0625-8.0625 0-4.4805 3.5859-8.0625 8.0625-8.0625h2.9102c4.4805 0 8.0625 3.5859 8.0625 8.0625 0.003906 4.3672-3.582 8.0625-8.0625 8.0625zm0-28.445h-2.9102c-4.4805 0-8.0625-3.5859-8.0625-8.0625 0-4.4805 3.5859-8.0625 8.0625-8.0625l2.9102-0.003906c4.4805 0 8.0625 3.5859 8.0625 8.0625 0.003906 4.4805-3.582 8.0664-8.0625 8.0664zm0-28.449h-2.9102c-4.4805 0-8.0625-3.5859-8.0625-8.0625 0-4.4805 3.5859-8.0625 8.0625-8.0625l2.9102-0.003907c4.4805 0 8.0625 3.5859 8.0625 8.0625 0.003906 4.4844-3.582 8.0664-8.0625 8.0664zm0-28.336h-2.9102c-4.4805 0-8.0625-3.5859-8.0625-8.0625 0-4.4805 3.5859-8.0625 8.0625-8.0625l2.9102-0.003906c4.4805 0 8.0625 3.5859 8.0625 8.0625 0.003906 4.3711-3.582 8.0664-8.0625 8.0664zm36.402 113.68h-2.8008c-4.4805 0-8.0625-3.5859-8.0625-8.0625 0-4.4805 3.5859-8.0625 8.0625-8.0625h2.9102c4.4805 0 8.0625 3.5859 8.0625 8.0625 0.003906 4.3672-3.6914 8.0625-8.1719 8.0625zm0-28.449h-2.8008c-4.4805 0-8.0625-3.5859-8.0625-8.0625 0-4.4805 3.5859-8.0625 8.0625-8.0625h2.9102c4.4805 0 8.0625 3.5859 8.0625 8.0625 0.003906 4.3672-3.6914 8.0625-8.1719 8.0625zm0-28.445h-2.8008c-4.4805 0-8.0625-3.5859-8.0625-8.0625 0-4.4805 3.5859-8.0625 8.0625-8.0625h2.9102c4.4805 0 8.0625 3.5859 8.0625 8.0625 0.003906 4.4766-3.6914 8.0625-8.1719 8.0625zm0-28.449h-2.8008c-4.4805 0-8.0625-3.5859-8.0625-8.0625 0-4.4805 3.5859-8.0625 8.0625-8.0625h2.9102c4.4805 0 8.0625 3.5859 8.0625 8.0625 0.003906 4.4805-3.6914 8.0625-8.1719 8.0625zm0-28.336h-2.8008c-4.4805 0-8.0625-3.5859-8.0625-8.0625 0-4.4805 3.5859-8.0625 8.0625-8.0625h2.9102c4.4805 0 8.0625 3.5859 8.0625 8.0625 0.003906 4.3672-3.6914 8.0625-8.1719 8.0625zm174.94 94.078v39.871h-46.031v-45.023c0-4.4805-3.5859-8.0625-8.0625-8.0625h-27.551c-4.4805 0-8.0625 3.5859-8.0625 8.0625v45.023h-46.031l-0.003906-258.16h135.74v156.35 0.44922c-7.7266 8.1758-12.434 19.039-12.434 30.688 0.003906 11.871 4.707 22.734 12.434 30.797zm53.984 39.762h-37.855v-29.121c4.9297 1.9023 10.305 3.0234 15.902 3.0234 8.1758 0 15.566-2.2383 21.953-6.3828zm8.0664-152.43c-4.4805 0-8.0625 3.5859-8.0625 8.0625v12.098l-9.7422-5.4883c-3.9219-2.1289-8.8477-0.78516-10.977 3.0234-2.2383 3.9219-0.78516 8.8477 3.0234 10.977l17.695 9.9688v28.113l-16.238-8.7344c-3.9219-2.1289-8.8477-0.67188-10.977 3.3594-2.1289 3.9219-0.67188 8.8477 3.3594 10.977l23.969 12.879v11.426c-5.2656 8.9609-12.656 13.551-21.953 13.551-15.68 0-28.336-12.77-28.336-28.336 0-11.762 7.168-22.176 18.145-26.434 2.5742-1.0078 4.4805-3.2461 5.0391-5.9375 0.55859-2.6875-0.33594-5.4883-2.3516-7.3906-4.0312-3.8086-6.1602-8.9609-6.1602-14.449 0-11.09 9.0703-20.16 20.047-20.16 0.33594 0 0.78516 0 1.457 0.11328 3.1367 0.22266 6.2734-1.457 7.7266-4.2578 1.457-2.8008 1.2305-6.2734-0.78516-8.8477-1.9023-2.4648-2.9102-5.375-2.9102-8.3984 0-7.5039 6.0469-13.551 13.551-13.551s13.551 6.0469 13.551 13.551c0 1.5664-0.33594 3.1367-0.89453 4.7031-1.1211 3.0234-0.33594 6.3828 2.0156 8.625 2.3516 2.2383 5.7109 2.9102 8.7344 1.6797 2.0156-0.78516 4.0312-1.2305 6.1602-1.2305 8.8477 0 16.016 7.168 16.016 16.016 0 5.1523-2.4648 9.9688-6.7188 12.992-2.4648 1.793-3.8086 4.9297-3.2461 7.9531 0.55859 3.0234 2.8008 5.4883 5.7109 6.3828 12.656 3.5859 21.617 15.344 21.617 28.559 0 16.352-13.328 29.793-29.793 29.793-7.2812 0-15.23-2.5742-20.496-6.4961v-9.4062l25.648-11.199c4.1445-1.793 5.9375-6.6094 4.1445-10.641s-6.6094-5.9375-10.641-4.1445l-19.039 8.3984v-29.457l15.902-9.8555c3.8086-2.3516 4.9297-7.3906 2.5742-11.199-2.3516-3.8086-7.3906-4.9297-11.199-2.5742l-7.3906 4.5938v-11.312c0-4.707-3.6953-8.293-8.1758-8.293z"/>
  <use x="70" y="728" xlink:href="#m"/>
  <use x="111.097656" y="728" xlink:href="#c"/>
  <use x="138.714844" y="728" xlink:href="#b"/>
  <use x="176.695312" y="728" xlink:href="#i"/>
  <use x="214.484375" y="728" xlink:href="#a"/>
  <use x="241.253906" y="728" xlink:href="#b"/>
  <use x="279.234375" y="728" xlink:href="#h"/>
  <use x="338.816406" y="728" xlink:href="#g"/>
  <use x="378.902344" y="728" xlink:href="#f"/>
  <use x="434.902344" y="728" xlink:href="#e"/>
  <use x="473.15625" y="728" xlink:href="#l"/>
  <use x="492.351562" y="728" xlink:href="#d"/>
  <use x="511.546875" y="728" xlink:href="#d"/>
  <use x="550.238281" y="728" xlink:href="#k"/>
  <use x="618.570312" y="728" xlink:href="#j"/>
  <use x="658.902344" y="728" xlink:href="#a"/>
  <use x="685.671875" y="728" xlink:href="#c"/>
 </g>
</svg>
