<svg id="egU1RX9Zjx51" xmlns="http://www.w3.org/2000/svg" xmlns:xlink="http://www.w3.org/1999/xlink" viewBox="0 0 150 150" shape-rendering="geometricPrecision" text-rendering="geometricPrecision" style="background-color:#163975"><g transform="translate(-130.939926-141.069619)"><line x1="-32" y1="0" x2="32" y2="0" transform="matrix(0-1.329431 1 0 171.998806 238.697038)" fill="none" stroke="#eabf12" stroke-width="3"/><line x1="-32" y1="0" x2="32" y2="0" transform="matrix(.707107-.707107 0.707107 0.707107 194.626223 173.527829)" fill="none" stroke="#eabf12" stroke-width="3"/><line x1="-32" y1="0" x2="36.066966" y2="0" transform="matrix(0 0.707107 1 0 217.25364 173.527829)" fill="none" stroke="#eabf12" stroke-width="3"/><line x1="-32" y1="0" x2="32" y2="0" transform="matrix(0-1.63805-1 0 194.626223 228.821216)" fill="none" stroke="#eabf12" stroke-width="3"/><line x1="-32" y1="0" x2="32" y2="0" transform="matrix(.707107 0.707107-.707107 0.707107 217.25364 199.031033)" fill="none" stroke="#eabf12" stroke-width="3"/><line x1="-56.410178" y1="0" x2="32" y2="0" transform="matrix(0 0.848059-1 0 217.25364 254.100928)" fill="none" stroke="#eabf12" stroke-width="3"/><line x1="-32" y1="0" x2="32" y2="0" transform="matrix(.347294 0 0-1 205.739616 281.238816)" fill="none" stroke="#eabf12" stroke-width="3"/><line x1="-37.127865" y1="0" x2="32" y2="0" transform="matrix(0 0.861885-1 0 239.881057 253.6584)" fill="none" stroke="#eabf12" stroke-width="3"/><line x1="-32" y1="0" x2="-13.221159" y2="0" transform="translate(271.881057 281.23872)" fill="none" stroke="#eabf12" stroke-width="3"/><line x1="-32" y1="0" x2="-13.221159" y2="0" transform="translate(185.219965 281.23872)" fill="none" stroke="#eabf12" stroke-width="3"/></g></svg>
